<svg width="0" height="0" class="hidden">
  <symbol fill="none" xmlns="http://www.w3.org/2000/svg" viewBox="0 0 18 10" id="chevron-down">
    <path d="M17.031 1.53104L9.53104 9.03104C9.46139 9.10077 9.37867 9.15609 9.28762 9.19384C9.19657 9.23158 9.09898 9.25101 9.00042 9.25101C8.90186 9.25101 8.80426 9.23158 8.71321 9.19384C8.62216 9.15609 8.53945 9.10077 8.46979 9.03104L0.969792 1.53104C0.829062 1.39031 0.75 1.19944 0.75 1.00042C0.75 0.801394 0.829062 0.610522 0.969792 0.469792C1.11052 0.329061 1.30139 0.25 1.50042 0.25C1.69944 0.25 1.89031 0.329061 2.03104 0.469792L9.00042 7.4401L15.9698 0.469792C16.0395 0.400109 16.1222 0.344834 16.2132 0.307122C16.3043 0.26941 16.4019 0.25 16.5004 0.25C16.599 0.25 16.6965 0.26941 16.7876 0.307122C16.8786 0.344834 16.9614 0.400109 17.031 0.469792C17.1007 0.539474 17.156 0.6222 17.1937 0.713245C17.2314 0.804289 17.2508 0.901871 17.2508 1.00042C17.2508 1.09896 17.2314 1.19654 17.1937 1.28759C17.156 1.37863 17.1007 1.46136 17.031 1.53104Z" fill="currentColor"></path>
  </symbol>
  <symbol fill="none" xmlns="http://www.w3.org/2000/svg" viewBox="0 0 21 44" id="arrow-down">
    <path d="M1.55468 33.4091L10.7173 42.8067L19.88 33.4091M10.7173 41.5014L10.7173 1.1582" stroke="currentColor" stroke-width="1.5" stroke-linecap="round" stroke-linejoin="round"></path>
  </symbol>
  <symbol fill="none" xmlns="http://www.w3.org/2000/svg" viewBox="0 0 22 20" id="btn-arrow">
    <path d="M1.32079 10.6961L20.5939 10.6961C20.8878 10.6961 21.1536 10.5155 21.2661 10.2394C21.3786 9.96249 21.3164 9.64417 21.1084 9.43245L12.3813 0.549118C12.097 0.259669 11.6373 0.259669 11.353 0.549118C11.0688 0.838566 11.0688 1.30642 11.353 1.59587L18.8387 9.21555L1.32079 9.21555C0.918824 9.21555 0.593842 9.54719 0.593842 9.95583C0.593842 10.3645 0.918824 10.6961 1.32079 10.6961Z" fill="currentColor"></path>
    <path d="M11.8677 19.5787C12.0535 19.5787 12.24 19.5062 12.3822 19.3618L18.2007 13.4396C18.485 13.1502 18.485 12.6823 18.2007 12.3929C17.9165 12.1034 17.4568 12.1034 17.1725 12.3929L11.3539 18.3151C11.0696 18.6045 11.0696 19.0724 11.3539 19.3618C11.4953 19.5062 11.6819 19.5787 11.8677 19.5787Z" fill="currentColor"></path>
  </symbol>
  <symbol fill="none" xmlns="http://www.w3.org/2000/svg" viewBox="0 0 32 33" id="menu">
    <path d="M28 16.5C28 16.7652 27.8946 17.0196 27.7071 17.2071C27.5196 17.3946 27.2652 17.5 27 17.5H5C4.73478 17.5 4.48043 17.3946 4.29289 17.2071C4.10536 17.0196 4 16.7652 4 16.5C4 16.2348 4.10536 15.9804 4.29289 15.7929C4.48043 15.6054 4.73478 15.5 5 15.5H27C27.2652 15.5 27.5196 15.6054 27.7071 15.7929C27.8946 15.9804 28 16.2348 28 16.5ZM5 9.5H27C27.2652 9.5 27.5196 9.39464 27.7071 9.20711C27.8946 9.01957 28 8.76522 28 8.5C28 8.23478 27.8946 7.98043 27.7071 7.79289C27.5196 7.60536 27.2652 7.5 27 7.5H5C4.73478 7.5 4.48043 7.60536 4.29289 7.79289C4.10536 7.98043 4 8.23478 4 8.5C4 8.76522 4.10536 9.01957 4.29289 9.20711C4.48043 9.39464 4.73478 9.5 5 9.5ZM27 23.5H5C4.73478 23.5 4.48043 23.6054 4.29289 23.7929C4.10536 23.9804 4 24.2348 4 24.5C4 24.7652 4.10536 25.0196 4.29289 25.2071C4.48043 25.3946 4.73478 25.5 5 25.5H27C27.2652 25.5 27.5196 25.3946 27.7071 25.2071C27.8946 25.0196 28 24.7652 28 24.5C28 24.2348 27.8946 23.9804 27.7071 23.7929C27.5196 23.6054 27.2652 23.5 27 23.5Z" fill="currentColor"></path>
  </symbol>
  <symbol fill="none" xmlns="http://www.w3.org/2000/svg" viewBox="0 0 48 48" id="service-1">
    <path d="M10.9399 19.0621L4.93993 13.0621C4.80047 12.9228 4.68983 12.7573 4.61434 12.5752C4.53885 12.3931 4.5 12.198 4.5 12.0008C4.5 11.8037 4.53885 11.6085 4.61434 11.4264C4.68983 11.2443 4.80047 11.0789 4.93993 10.9396L10.9399 4.93958C11.2214 4.65812 11.6031 4.5 12.0012 4.5C12.3992 4.5 12.781 4.65812 13.0624 4.93958C13.3439 5.22105 13.502 5.60279 13.502 6.00083C13.502 6.39888 13.3439 6.78062 13.0624 7.06208L8.12181 12.0008L13.0624 16.9396C13.3439 17.221 13.502 17.6028 13.502 18.0008C13.502 18.3989 13.3439 18.7806 13.0624 19.0621C12.781 19.3435 12.3992 19.5017 12.0012 19.5017C11.6031 19.5017 11.2214 19.3435 10.9399 19.0621ZM18.4399 19.0621C18.5792 19.2016 18.7447 19.3122 18.9268 19.3877C19.1089 19.4632 19.3041 19.502 19.5012 19.502C19.6983 19.502 19.8935 19.4632 20.0756 19.3877C20.2577 19.3122 20.4231 19.2016 20.5624 19.0621L26.5624 13.0621C26.7019 12.9228 26.8125 12.7573 26.888 12.5752C26.9635 12.3931 27.0024 12.198 27.0024 12.0008C27.0024 11.8037 26.9635 11.6085 26.888 11.4264C26.8125 11.2443 26.7019 11.0789 26.5624 10.9396L20.5624 4.93958C20.281 4.65812 19.8992 4.5 19.5012 4.5C19.1031 4.5 18.7214 4.65812 18.4399 4.93958C18.1585 5.22105 18.0003 5.60279 18.0003 6.00083C18.0003 6.39888 18.1585 6.78062 18.4399 7.06208L23.3806 12.0008L18.4399 16.9396C18.3005 17.0789 18.1898 17.2443 18.1143 17.4264C18.0389 17.6085 18 17.8037 18 18.0008C18 18.198 18.0389 18.3931 18.1143 18.5752C18.1898 18.7573 18.3005 18.9228 18.4399 19.0621ZM37.5012 7.50083H33.0012C32.6034 7.50083 32.2218 7.65887 31.9405 7.94017C31.6592 8.22148 31.5012 8.60301 31.5012 9.00083C31.5012 9.39866 31.6592 9.78019 31.9405 10.0615C32.2218 10.3428 32.6034 10.5008 33.0012 10.5008H37.5012V37.5008H10.5012V25.5008C10.5012 25.103 10.3431 24.7215 10.0618 24.4402C9.78054 24.1589 9.399 24.0008 9.00118 24.0008C8.60335 24.0008 8.22182 24.1589 7.94052 24.4402C7.65922 24.7215 7.50118 25.103 7.50118 25.5008V37.5008C7.50118 38.2965 7.81725 39.0595 8.37986 39.6222C8.94247 40.1848 9.70553 40.5008 10.5012 40.5008H37.5012C38.2968 40.5008 39.0599 40.1848 39.6225 39.6222C40.1851 39.0595 40.5012 38.2965 40.5012 37.5008V10.5008C40.5012 9.70518 40.1851 8.94212 39.6225 8.37951C39.0599 7.8169 38.2968 7.50083 37.5012 7.50083Z" fill="currentColor"></path>
  </symbol>
  <symbol fill="none" xmlns="http://www.w3.org/2000/svg" viewBox="0 0 48 48" id="service-2">
    <path d="M40.5 10.5H33V9C33 7.80653 32.5259 6.66193 31.682 5.81802C30.8381 4.97411 29.6935 4.5 28.5 4.5H19.5C18.3065 4.5 17.1619 4.97411 16.318 5.81802C15.4741 6.66193 15 7.80653 15 9V10.5H7.5C6.70435 10.5 5.94129 10.8161 5.37868 11.3787C4.81607 11.9413 4.5 12.7044 4.5 13.5V37.5C4.5 38.2957 4.81607 39.0587 5.37868 39.6213C5.94129 40.1839 6.70435 40.5 7.5 40.5H40.5C41.2957 40.5 42.0587 40.1839 42.6213 39.6213C43.1839 39.0587 43.5 38.2957 43.5 37.5V13.5C43.5 12.7044 43.1839 11.9413 42.6213 11.3787C42.0587 10.8161 41.2957 10.5 40.5 10.5ZM18 9C18 8.60218 18.158 8.22064 18.4393 7.93934C18.7206 7.65804 19.1022 7.5 19.5 7.5H28.5C28.8978 7.5 29.2794 7.65804 29.5607 7.93934C29.842 8.22064 30 8.60218 30 9V10.5H18V9ZM40.5 13.5V21.3019C35.4371 24.0577 29.7643 25.501 24 25.5C18.2359 25.501 12.5633 24.0584 7.5 21.3038V13.5H40.5ZM40.5 37.5H7.5V24.6825C12.6374 27.1954 18.281 28.5011 24 28.5C29.7191 28.5001 35.3627 27.1938 40.5 24.6806V37.5ZM19.5 21C19.5 20.6022 19.658 20.2206 19.9393 19.9393C20.2206 19.658 20.6022 19.5 21 19.5H27C27.3978 19.5 27.7794 19.658 28.0607 19.9393C28.342 20.2206 28.5 20.6022 28.5 21C28.5 21.3978 28.342 21.7794 28.0607 22.0607C27.7794 22.342 27.3978 22.5 27 22.5H21C20.6022 22.5 20.2206 22.342 19.9393 22.0607C19.658 21.7794 19.5 21.3978 19.5 21Z" fill="currentColor"></path>
  </symbol>
  <symbol fill="none" xmlns="http://www.w3.org/2000/svg" viewBox="0 0 48 48" id="service-3">
    <path d="M39 25.5H9C8.20435 25.5 7.44129 25.8161 6.87868 26.3787C6.31607 26.9413 6 27.7044 6 28.5V37.5C6 38.2956 6.31607 39.0587 6.87868 39.6213C7.44129 40.1839 8.20435 40.5 9 40.5H39C39.7957 40.5 40.5587 40.1839 41.1213 39.6213C41.6839 39.0587 42 38.2956 42 37.5V28.5C42 27.7044 41.6839 26.9413 41.1213 26.3787C40.5587 25.8161 39.7957 25.5 39 25.5ZM39 37.5H9V28.5H39V37.5ZM39 7.5H9C8.20435 7.5 7.44129 7.81607 6.87868 8.37868C6.31607 8.94129 6 9.70435 6 10.5V19.5C6 20.2956 6.31607 21.0587 6.87868 21.6213C7.44129 22.1839 8.20435 22.5 9 22.5H39C39.7957 22.5 40.5587 22.1839 41.1213 21.6213C41.6839 21.0587 42 20.2956 42 19.5V10.5C42 9.70435 41.6839 8.94129 41.1213 8.37868C40.5587 7.81607 39.7957 7.5 39 7.5ZM39 19.5H9V10.5H39V19.5ZM36 15C36 15.445 35.868 15.88 35.6208 16.25C35.3736 16.62 35.0222 16.9084 34.611 17.0787C34.1999 17.249 33.7475 17.2936 33.311 17.2068C32.8746 17.12 32.4737 16.9057 32.159 16.591C31.8443 16.2763 31.63 15.8754 31.5432 15.439C31.4564 15.0025 31.501 14.5501 31.6713 14.139C31.8416 13.7278 32.13 13.3764 32.5 13.1292C32.87 12.882 33.305 12.75 33.75 12.75C34.3467 12.75 34.919 12.9871 35.341 13.409C35.7629 13.831 36 14.4033 36 15ZM36 33C36 33.445 35.868 33.88 35.6208 34.25C35.3736 34.62 35.0222 34.9084 34.611 35.0787C34.1999 35.249 33.7475 35.2936 33.311 35.2068C32.8746 35.12 32.4737 34.9057 32.159 34.591C31.8443 34.2763 31.63 33.8754 31.5432 33.439C31.4564 33.0025 31.501 32.5501 31.6713 32.139C31.8416 31.7278 32.13 31.3764 32.5 31.1292C32.87 30.882 33.305 30.75 33.75 30.75C34.3467 30.75 34.919 30.9871 35.341 31.409C35.7629 31.831 36 32.4033 36 33Z" fill="currentColor"></path>
  </symbol>
  <symbol xmlns="http://www.w3.org/2000/svg" fill="none" stroke-width="1.5" stroke="currentColor" viewBox="0 0 24 24" id="chevron-right">
    <path stroke-linecap="round" stroke-linejoin="round" d="m8.25 4.5 7.5 7.5-7.5 7.5"></path>
  </symbol>
  <symbol fill="none" xmlns="http://www.w3.org/2000/svg" viewBox="0 0 32 32" id="clock">
    <path d="M16 5C13.6266 5 11.3066 5.70379 9.33316 7.02236C7.35977 8.34094 5.8217 10.2151 4.91345 12.4078C4.0052 14.6005 3.76756 17.0133 4.23058 19.3411C4.6936 21.6689 5.83649 23.8071 7.51472 25.4853C9.19295 27.1635 11.3312 28.3064 13.6589 28.7694C15.9867 29.2324 18.3995 28.9948 20.5922 28.0866C22.7849 27.1783 24.6591 25.6402 25.9776 23.6668C27.2962 21.6935 28 19.3734 28 17C27.9964 13.8185 26.7309 10.7684 24.4813 8.51874C22.2316 6.26909 19.1815 5.00364 16 5ZM16 27C14.0222 27 12.0888 26.4135 10.4443 25.3147C8.79981 24.2159 7.51809 22.6541 6.76121 20.8268C6.00433 18.9996 5.8063 16.9889 6.19215 15.0491C6.578 13.1093 7.53041 11.3275 8.92894 9.92893C10.3275 8.53041 12.1093 7.578 14.0491 7.19215C15.9889 6.80629 17.9996 7.00433 19.8268 7.7612C21.6541 8.51808 23.2159 9.79981 24.3147 11.4443C25.4135 13.0888 26 15.0222 26 17C25.997 19.6513 24.9425 22.1931 23.0678 24.0678C21.1931 25.9425 18.6513 26.997 16 27ZM21.7075 11.2925C21.8005 11.3854 21.8742 11.4957 21.9246 11.6171C21.9749 11.7385 22.0008 11.8686 22.0008 12C22.0008 12.1314 21.9749 12.2615 21.9246 12.3829C21.8742 12.5043 21.8005 12.6146 21.7075 12.7075L16.7075 17.7075C16.6146 17.8004 16.5043 17.8741 16.3829 17.9244C16.2615 17.9747 16.1314 18.0006 16 18.0006C15.8686 18.0006 15.7385 17.9747 15.6171 17.9244C15.4957 17.8741 15.3854 17.8004 15.2925 17.7075C15.1996 17.6146 15.1259 17.5043 15.0756 17.3829C15.0253 17.2615 14.9994 17.1314 14.9994 17C14.9994 16.8686 15.0253 16.7385 15.0756 16.6171C15.1259 16.4957 15.1996 16.3854 15.2925 16.2925L20.2925 11.2925C20.3854 11.1995 20.4957 11.1258 20.6171 11.0754C20.7385 11.0251 20.8686 10.9992 21 10.9992C21.1314 10.9992 21.2615 11.0251 21.3829 11.0754C21.5043 11.1258 21.6146 11.1995 21.7075 11.2925ZM12 2C12 1.73478 12.1054 1.48043 12.2929 1.29289C12.4804 1.10536 12.7348 1 13 1H19C19.2652 1 19.5196 1.10536 19.7071 1.29289C19.8946 1.48043 20 1.73478 20 2C20 2.26522 19.8946 2.51957 19.7071 2.70711C19.5196 2.89464 19.2652 3 19 3H13C12.7348 3 12.4804 2.89464 12.2929 2.70711C12.1054 2.51957 12 2.26522 12 2Z" fill="currentColor"></path>
  </symbol>
  <symbol fill="none" xmlns="http://www.w3.org/2000/svg" viewBox="0 0 32 32" id="location">
    <path d="M16 8C15.0111 8 14.0444 8.29325 13.2221 8.84265C12.3999 9.39206 11.759 10.173 11.3806 11.0866C11.0022 12.0002 10.9031 13.0055 11.0961 13.9755C11.289 14.9454 11.7652 15.8363 12.4645 16.5355C13.1637 17.2348 14.0546 17.711 15.0245 17.9039C15.9945 18.0969 16.9998 17.9978 17.9134 17.6194C18.827 17.241 19.6079 16.6001 20.1573 15.7779C20.7068 14.9556 21 13.9889 21 13C21 11.6739 20.4732 10.4021 19.5355 9.46447C18.5979 8.52678 17.3261 8 16 8ZM16 16C15.4067 16 14.8266 15.8241 14.3333 15.4944C13.8399 15.1648 13.4554 14.6962 13.2284 14.1481C13.0013 13.5999 12.9419 12.9967 13.0576 12.4147C13.1734 11.8328 13.4591 11.2982 13.8787 10.8787C14.2982 10.4591 14.8328 10.1734 15.4147 10.0576C15.9967 9.94189 16.5999 10.0013 17.1481 10.2284C17.6962 10.4554 18.1648 10.8399 18.4944 11.3333C18.8241 11.8266 19 12.4067 19 13C19 13.7956 18.6839 14.5587 18.1213 15.1213C17.5587 15.6839 16.7956 16 16 16ZM16 2C13.0836 2.00331 10.2877 3.1633 8.22548 5.22548C6.1633 7.28766 5.00331 10.0836 5 13C5 16.925 6.81375 21.085 10.25 25.0312C11.794 26.8145 13.5318 28.4202 15.4312 29.8188C15.5994 29.9365 15.7997 29.9997 16.005 29.9997C16.2103 29.9997 16.4106 29.9365 16.5788 29.8188C18.4747 28.4196 20.2091 26.8139 21.75 25.0312C25.1812 21.085 27 16.925 27 13C26.9967 10.0836 25.8367 7.28766 23.7745 5.22548C21.7123 3.1633 18.9164 2.00331 16 2ZM16 27.75C13.9338 26.125 7 20.1562 7 13C7 10.6131 7.94821 8.32387 9.63604 6.63604C11.3239 4.94821 13.6131 4 16 4C18.3869 4 20.6761 4.94821 22.364 6.63604C24.0518 8.32387 25 10.6131 25 13C25 20.1537 18.0662 26.125 16 27.75Z" fill="currentColor"></path>
  </symbol>
  <symbol fill="none" xmlns="http://www.w3.org/2000/svg" viewBox="0 0 36 35" id="discord">
    <path d="M28.1068 8.22714C26.2478 7.37416 24.2544 6.74572 22.1701 6.38579C22.1321 6.37884 22.0942 6.3962 22.0746 6.43092C21.8183 6.88691 21.5343 7.48179 21.3354 7.94936C19.0936 7.61374 16.8633 7.61374 14.6674 7.94936C14.4685 7.4714 14.1742 6.88691 13.9167 6.43092C13.8972 6.39736 13.8592 6.38 13.8213 6.38579C11.7381 6.74457 9.74465 7.37301 7.88451 8.22714C7.86841 8.23408 7.85461 8.24567 7.84545 8.2607C4.06423 13.9098 3.0284 19.42 3.53655 24.8618C3.53885 24.8885 3.55379 24.9139 3.57449 24.9301C6.06922 26.7622 8.4858 27.8744 10.8575 28.6116C10.8955 28.6232 10.9357 28.6093 10.9598 28.5781C11.5209 27.8119 12.021 27.0041 12.4498 26.1546C12.4751 26.1048 12.4509 26.0458 12.3992 26.0261C11.6059 25.7252 10.8506 25.3583 10.124 24.9417C10.0665 24.9081 10.0619 24.8259 10.1148 24.7866C10.2677 24.672 10.4207 24.5528 10.5667 24.4324C10.5931 24.4105 10.6299 24.4058 10.6609 24.4197C15.4342 26.599 20.6019 26.599 25.3189 24.4197C25.35 24.4047 25.3868 24.4093 25.4143 24.4313C25.5604 24.5516 25.7133 24.672 25.8673 24.7866C25.9202 24.8259 25.9167 24.9081 25.8593 24.9417C25.1327 25.3664 24.3774 25.7252 23.583 26.025C23.5312 26.0446 23.5082 26.1048 23.5335 26.1546C23.9715 27.0029 24.4716 27.8108 25.0223 28.5769C25.0453 28.6093 25.0867 28.6232 25.1246 28.6116C27.5078 27.8744 29.9244 26.7622 32.4191 24.9301C32.441 24.9139 32.4548 24.8896 32.4571 24.863C33.0652 18.5716 31.4385 13.1066 28.1447 8.26185C28.1367 8.24567 28.1229 8.23408 28.1068 8.22714ZM13.1626 21.5483C11.7255 21.5483 10.5413 20.2289 10.5413 18.6086C10.5413 16.9883 11.7025 15.669 13.1626 15.669C14.6341 15.669 15.8068 16.9999 15.7837 18.6086C15.7837 20.2289 14.6226 21.5483 13.1626 21.5483ZM22.8541 21.5483C21.417 21.5483 20.2329 20.2289 20.2329 18.6086C20.2329 16.9883 21.394 15.669 22.8541 15.669C24.3256 15.669 25.4983 16.9999 25.4753 18.6086C25.4753 20.2289 24.3256 21.5483 22.8541 21.5483Z" fill="currentColor"></path>
  </symbol>
  <symbol fill="none" xmlns="http://www.w3.org/2000/svg" viewBox="0 0 36 35" id="facebook">
    <path d="M32.5827 17.5886C32.5827 9.48508 26.0542 2.91675 17.9993 2.91675C9.94449 2.91675 3.41602 9.48508 3.41602 17.5886C3.41602 24.9133 8.74768 30.9829 15.7205 32.0834V21.8304H12.0182V17.5876H15.7205V14.3559C15.7205 10.679 17.8973 8.64703 21.2291 8.64703C22.8235 8.64703 24.4938 8.93383 24.4938 8.93383V12.5447H22.6534C20.8421 12.5447 20.2782 13.6763 20.2782 14.8372V17.5886H24.3227L23.6762 21.8294H20.2782V32.0834C27.251 30.9829 32.5827 24.9133 32.5827 17.5886Z" fill="currentColor"></path>
  </symbol>
  <symbol fill="none" xmlns="http://www.w3.org/2000/svg" viewBox="0 0 36 35" id="linkedin">
    <path d="M31.125 6.30515V28.6949C31.125 29.2068 30.9216 29.6977 30.5597 30.0597C30.1977 30.4216 29.7068 30.625 29.1949 30.625H6.80515C6.29324 30.625 5.8023 30.4216 5.44033 30.0597C5.07835 29.6977 4.875 29.2068 4.875 28.6949V6.30515C4.875 5.79324 5.07835 5.3023 5.44033 4.94033C5.8023 4.57835 6.29324 4.375 6.80515 4.375H29.1949C29.7068 4.375 30.1977 4.57835 30.5597 4.94033C30.9216 5.3023 31.125 5.79324 31.125 6.30515V6.30515ZM12.5956 14.4118H8.73529V26.7647H12.5956V14.4118ZM12.943 10.1654C12.945 9.87344 12.8895 9.5839 12.7797 9.31335C12.6698 9.0428 12.5077 8.79654 12.3027 8.58863C12.0977 8.38072 11.8537 8.21524 11.5847 8.10162C11.3157 7.98801 11.0269 7.92849 10.7349 7.92647H10.6654C10.0716 7.92647 9.50214 8.16236 9.08225 8.58225C8.66236 9.00214 8.42647 9.57163 8.42647 10.1654C8.42647 10.7593 8.66236 11.3287 9.08225 11.7486C9.50214 12.1685 10.0716 12.4044 10.6654 12.4044V12.4044C10.9575 12.4116 11.248 12.3612 11.5206 12.256C11.7931 12.1509 12.0422 11.993 12.2537 11.7916C12.4652 11.5901 12.635 11.3489 12.7533 11.0818C12.8715 10.8147 12.936 10.527 12.943 10.2349V10.1654ZM27.2647 19.2603C27.2647 15.5467 24.9022 14.1029 22.5551 14.1029C21.7867 14.0645 21.0215 14.2281 20.3361 14.5777C19.6506 14.9272 19.0687 15.4503 18.6485 16.0949H18.5404V14.4118H14.9118V26.7647H18.7721V20.1945C18.7163 19.5216 18.9282 18.8538 19.3619 18.3363C19.7956 17.8188 20.4159 17.4933 21.0882 17.4305H21.2349C22.4625 17.4305 23.3735 18.2026 23.3735 20.1482V26.7647H27.2338L27.2647 19.2603Z" fill="currentColor"></path>
  </symbol>
  <symbol fill="none" xmlns="http://www.w3.org/2000/svg" viewBox="0 0 36 35" id="messenger">
    <path fill-rule="evenodd" clip-rule="evenodd" d="M4.875 17.1062C4.875 9.7909 10.6063 4.375 18 4.375C25.3937 4.375 31.125 9.7909 31.125 17.1062C31.125 24.4216 25.3937 29.8375 18 29.8375C16.672 29.8375 15.3978 29.6622 14.2007 29.333C13.968 29.2689 13.7205 29.287 13.4997 29.3844L10.8946 30.5344C10.2131 30.8353 9.44389 30.3507 9.42105 29.606L9.34958 27.2713C9.34078 26.9836 9.21137 26.7148 8.99699 26.5229C6.44318 24.2391 4.875 20.9327 4.875 17.1062ZM13.974 14.7127L10.1185 20.8294C9.7485 21.4164 10.4701 22.0779 11.0228 21.6585L15.1642 18.5155C15.4444 18.3028 15.8315 18.3017 16.1128 18.5127L19.1793 20.8126C20.0995 21.5028 21.4128 21.2604 22.0261 20.2874L25.8816 14.1706C26.2515 13.5835 25.5299 12.922 24.9772 13.3415L20.8358 16.4845C20.5556 16.6972 20.1685 16.6983 19.8872 16.4872L16.8207 14.1874C15.9005 13.4973 14.5872 13.7396 13.974 14.7127Z" fill="currentColor"></path>
  </symbol>
  <symbol fill="none" xmlns="http://www.w3.org/2000/svg" viewBox="0 0 36 35" id="telegram">
    <path fill-rule="evenodd" clip-rule="evenodd" d="M32.5827 17.5001C32.5827 25.5542 26.0535 32.0834 17.9993 32.0834C9.9452 32.0834 3.41602 25.5542 3.41602 17.5001C3.41602 9.44593 9.9452 2.91675 17.9993 2.91675C26.0535 2.91675 32.5827 9.44593 32.5827 17.5001ZM18.5219 13.6828C17.1035 14.2728 14.2686 15.4939 10.0172 17.3462C9.3269 17.6207 8.96526 17.8893 8.93234 18.1519C8.8767 18.5957 9.43248 18.7704 10.1893 19.0084C10.2923 19.0408 10.3989 19.0743 10.5083 19.1099C11.2529 19.3519 12.2545 19.6351 12.7752 19.6463C13.2475 19.6565 13.7747 19.4618 14.3567 19.0621C18.3289 16.3808 20.3793 15.0256 20.508 14.9963C20.5988 14.9757 20.7247 14.9498 20.81 15.0256C20.8952 15.1014 20.8869 15.2449 20.8778 15.2834C20.8228 15.5182 18.6411 17.5464 17.5121 18.596C17.1602 18.9232 16.9105 19.1553 16.8595 19.2083C16.7452 19.3271 16.6286 19.4394 16.5167 19.5474C15.8249 20.2142 15.3062 20.7143 16.5454 21.5309C17.1409 21.9234 17.6174 22.2479 18.0928 22.5716C18.612 22.9252 19.1299 23.2779 19.7999 23.7171C19.9706 23.829 20.1336 23.9452 20.2924 24.0584C20.8966 24.4891 21.4395 24.8761 22.1101 24.8144C22.4998 24.7786 22.9023 24.4121 23.1067 23.3193C23.5899 20.7366 24.5395 15.1406 24.759 12.8346C24.7782 12.6326 24.754 12.374 24.7346 12.2605C24.7152 12.147 24.6746 11.9853 24.527 11.8656C24.3523 11.7238 24.0826 11.6939 23.9619 11.696C23.4134 11.7057 22.5719 11.9983 18.5219 13.6828Z" fill="currentColor"></path>
  </symbol>
  <symbol fill="none" xmlns="http://www.w3.org/2000/svg" viewBox="0 0 36 35" id="whatsapp">
    <path d="M18.055 4.79834C10.8507 4.79834 4.98762 10.4455 4.98508 17.3856C4.98339 19.605 5.58629 21.7711 6.72944 23.6789L4.875 30.2016L11.8042 28.4513C13.7316 29.4595 15.8747 29.9854 18.05 29.9839H18.055C25.2594 29.9839 31.1225 24.336 31.125 17.3958C31.1267 14.0341 29.7685 10.8697 27.3001 8.49112C24.8326 6.11169 21.5514 4.79919 18.055 4.79834ZM18.055 27.8577H18.0508C16.1015 27.8577 14.1895 27.353 12.5214 26.3995L12.1234 26.1726L8.01315 27.2108L9.11056 23.3495L8.8523 22.954C7.7675 21.2996 7.19002 19.364 7.19093 17.3856C7.19347 11.6166 12.0675 6.92459 18.0593 6.92459C20.9603 6.92544 23.6878 8.01523 25.7395 9.99245C27.7912 11.9697 28.92 14.5989 28.9183 17.395C28.9158 23.164 24.0426 27.8577 18.0542 27.8577H18.055ZM24.0138 20.0208C23.6869 19.8641 22.0815 19.1029 21.7817 18.997C21.4828 18.8929 21.2652 18.8387 21.0475 19.1537C20.8308 19.4687 20.2042 20.1775 20.0145 20.3866C19.8231 20.5966 19.6326 20.622 19.3057 20.4654C18.9789 20.3079 17.9263 19.9759 16.6799 18.9039C15.7086 18.0707 15.0532 17.041 14.8627 16.7252C14.6722 16.411 14.8424 16.2408 15.0058 16.0841C15.1523 15.9444 15.3327 15.7175 15.4952 15.5337C15.6578 15.35 15.712 15.2187 15.8221 15.0087C15.9305 14.7996 15.8763 14.615 15.7942 14.4583C15.712 14.3 15.06 12.7521 14.7865 12.1229C14.5223 11.5099 14.253 11.592 14.0523 11.5818C13.8618 11.5734 13.645 11.5708 13.4257 11.5708C13.2098 11.5708 12.855 11.6496 12.5552 11.9646C12.2563 12.2796 11.4121 13.04 11.4121 14.5879C11.4121 16.1366 12.5823 17.6321 12.7458 17.8421C12.9092 18.0512 15.049 21.2291 18.3252 22.5925C19.1042 22.9151 19.7122 23.109 20.1872 23.2546C20.9696 23.4943 21.6818 23.4596 22.244 23.3791C22.8706 23.2885 24.1764 22.6187 24.4473 21.8846C24.72 21.1504 24.72 20.5204 24.6387 20.3891C24.5591 20.2579 24.3406 20.1791 24.0138 20.0208Z" fill="currentColor"></path>
  </symbol>
</svg>