<svg width="22" height="20" viewBox="0 0 22 20" fill="none" xmlns="http://www.w3.org/2000/svg">
<path d="M1.32079 10.6961L20.5939 10.6961C20.8878 10.6961 21.1536 10.5155 21.2661 10.2394C21.3786 9.96249 21.3164 9.64417 21.1084 9.43245L12.3813 0.549118C12.097 0.259669 11.6373 0.259669 11.353 0.549118C11.0688 0.838566 11.0688 1.30642 11.353 1.59587L18.8387 9.21555L1.32079 9.21555C0.918824 9.21555 0.593842 9.54719 0.593842 9.95583C0.593842 10.3645 0.918824 10.6961 1.32079 10.6961Z" fill="currentColor"/>
<path d="M11.8677 19.5787C12.0535 19.5787 12.24 19.5062 12.3822 19.3618L18.2007 13.4396C18.485 13.1502 18.485 12.6823 18.2007 12.3929C17.9165 12.1034 17.4568 12.1034 17.1725 12.3929L11.3539 18.3151C11.0696 18.6045 11.0696 19.0724 11.3539 19.3618C11.4953 19.5062 11.6819 19.5787 11.8677 19.5787Z" fill="currentColor"/>
</svg>
