<svg width="48" height="48" viewBox="0 0 48 48" fill="none" xmlns="http://www.w3.org/2000/svg">
<path d="M10.9399 19.0621L4.93993 13.0621C4.80047 12.9228 4.68983 12.7573 4.61434 12.5752C4.53885 12.3931 4.5 12.198 4.5 12.0008C4.5 11.8037 4.53885 11.6085 4.61434 11.4264C4.68983 11.2443 4.80047 11.0789 4.93993 10.9396L10.9399 4.93958C11.2214 4.65812 11.6031 4.5 12.0012 4.5C12.3992 4.5 12.781 4.65812 13.0624 4.93958C13.3439 5.22105 13.502 5.60279 13.502 6.00083C13.502 6.39888 13.3439 6.78062 13.0624 7.06208L8.12181 12.0008L13.0624 16.9396C13.3439 17.221 13.502 17.6028 13.502 18.0008C13.502 18.3989 13.3439 18.7806 13.0624 19.0621C12.781 19.3435 12.3992 19.5017 12.0012 19.5017C11.6031 19.5017 11.2214 19.3435 10.9399 19.0621ZM18.4399 19.0621C18.5792 19.2016 18.7447 19.3122 18.9268 19.3877C19.1089 19.4632 19.3041 19.502 19.5012 19.502C19.6983 19.502 19.8935 19.4632 20.0756 19.3877C20.2577 19.3122 20.4231 19.2016 20.5624 19.0621L26.5624 13.0621C26.7019 12.9228 26.8125 12.7573 26.888 12.5752C26.9635 12.3931 27.0024 12.198 27.0024 12.0008C27.0024 11.8037 26.9635 11.6085 26.888 11.4264C26.8125 11.2443 26.7019 11.0789 26.5624 10.9396L20.5624 4.93958C20.281 4.65812 19.8992 4.5 19.5012 4.5C19.1031 4.5 18.7214 4.65812 18.4399 4.93958C18.1585 5.22105 18.0003 5.60279 18.0003 6.00083C18.0003 6.39888 18.1585 6.78062 18.4399 7.06208L23.3806 12.0008L18.4399 16.9396C18.3005 17.0789 18.1898 17.2443 18.1143 17.4264C18.0389 17.6085 18 17.8037 18 18.0008C18 18.198 18.0389 18.3931 18.1143 18.5752C18.1898 18.7573 18.3005 18.9228 18.4399 19.0621ZM37.5012 7.50083H33.0012C32.6034 7.50083 32.2218 7.65887 31.9405 7.94017C31.6592 8.22148 31.5012 8.60301 31.5012 9.00083C31.5012 9.39866 31.6592 9.78019 31.9405 10.0615C32.2218 10.3428 32.6034 10.5008 33.0012 10.5008H37.5012V37.5008H10.5012V25.5008C10.5012 25.103 10.3431 24.7215 10.0618 24.4402C9.78054 24.1589 9.399 24.0008 9.00118 24.0008C8.60335 24.0008 8.22182 24.1589 7.94052 24.4402C7.65922 24.7215 7.50118 25.103 7.50118 25.5008V37.5008C7.50118 38.2965 7.81725 39.0595 8.37986 39.6222C8.94247 40.1848 9.70553 40.5008 10.5012 40.5008H37.5012C38.2968 40.5008 39.0599 40.1848 39.6225 39.6222C40.1851 39.0595 40.5012 38.2965 40.5012 37.5008V10.5008C40.5012 9.70518 40.1851 8.94212 39.6225 8.37951C39.0599 7.8169 38.2968 7.50083 37.5012 7.50083Z" fill="currentColor"/>
</svg>
