<svg width="32" height="33" viewBox="0 0 32 33" fill="none" xmlns="http://www.w3.org/2000/svg">
<path d="M29.1571 22.2088C29.1571 24.5525 27.4331 26.438 25.3029 26.438C22.4174 26.5734 19.4747 26.6255 16.4694 26.6255C16.3132 26.6255 16.1569 26.6255 16.0007 26.6255C15.8444 26.6255 15.6882 26.6255 15.5319 26.6255C12.5319 26.6255 9.58394 26.5734 6.69849 26.438C4.57347 26.438 2.84949 24.5421 2.84949 22.1984C2.71928 20.3442 2.66199 18.49 2.6672 16.6358C2.66199 14.7816 2.71928 12.9274 2.84428 11.068C2.84428 8.72425 4.56826 6.82318 6.69328 6.82318C9.72457 6.68256 12.834 6.62006 15.9955 6.62527C19.1622 6.61485 22.2612 6.67735 25.2977 6.82318C27.4279 6.82318 29.1519 8.72425 29.1519 11.068C29.2769 12.9274 29.3342 14.7816 29.329 16.641C29.3394 18.4952 29.2821 20.3494 29.1571 22.2088ZM13.4486 11.5264V21.7609L21.0007 16.6462L13.4486 11.5264Z" fill="white"/>
</svg>
