<svg width="36" height="35" viewBox="0 0 36 35" fill="none" xmlns="http://www.w3.org/2000/svg">
<path d="M28.1068 8.22714C26.2478 7.37416 24.2544 6.74572 22.1701 6.38579C22.1321 6.37884 22.0942 6.3962 22.0746 6.43092C21.8183 6.88691 21.5343 7.48179 21.3354 7.94936C19.0936 7.61374 16.8633 7.61374 14.6674 7.94936C14.4685 7.4714 14.1742 6.88691 13.9167 6.43092C13.8972 6.39736 13.8592 6.38 13.8213 6.38579C11.7381 6.74457 9.74465 7.37301 7.88451 8.22714C7.86841 8.23408 7.85461 8.24567 7.84545 8.2607C4.06423 13.9098 3.0284 19.42 3.53655 24.8618C3.53885 24.8885 3.55379 24.9139 3.57449 24.9301C6.06922 26.7622 8.4858 27.8744 10.8575 28.6116C10.8955 28.6232 10.9357 28.6093 10.9598 28.5781C11.5209 27.8119 12.021 27.0041 12.4498 26.1546C12.4751 26.1048 12.4509 26.0458 12.3992 26.0261C11.6059 25.7252 10.8506 25.3583 10.124 24.9417C10.0665 24.9081 10.0619 24.8259 10.1148 24.7866C10.2677 24.672 10.4207 24.5528 10.5667 24.4324C10.5931 24.4105 10.6299 24.4058 10.6609 24.4197C15.4342 26.599 20.6019 26.599 25.3189 24.4197C25.35 24.4047 25.3868 24.4093 25.4143 24.4313C25.5604 24.5516 25.7133 24.672 25.8673 24.7866C25.9202 24.8259 25.9167 24.9081 25.8593 24.9417C25.1327 25.3664 24.3774 25.7252 23.583 26.025C23.5312 26.0446 23.5082 26.1048 23.5335 26.1546C23.9715 27.0029 24.4716 27.8108 25.0223 28.5769C25.0453 28.6093 25.0867 28.6232 25.1246 28.6116C27.5078 27.8744 29.9244 26.7622 32.4191 24.9301C32.441 24.9139 32.4548 24.8896 32.4571 24.863C33.0652 18.5716 31.4385 13.1066 28.1447 8.26185C28.1367 8.24567 28.1229 8.23408 28.1068 8.22714ZM13.1626 21.5483C11.7255 21.5483 10.5413 20.2289 10.5413 18.6086C10.5413 16.9883 11.7025 15.669 13.1626 15.669C14.6341 15.669 15.8068 16.9999 15.7837 18.6086C15.7837 20.2289 14.6226 21.5483 13.1626 21.5483ZM22.8541 21.5483C21.417 21.5483 20.2329 20.2289 20.2329 18.6086C20.2329 16.9883 21.394 15.669 22.8541 15.669C24.3256 15.669 25.4983 16.9999 25.4753 18.6086C25.4753 20.2289 24.3256 21.5483 22.8541 21.5483Z" fill="currentColor"/>
</svg>
