<svg width="36" height="35" viewBox="0 0 36 35" fill="none" xmlns="http://www.w3.org/2000/svg">
<path d="M31.125 6.30515V28.6949C31.125 29.2068 30.9216 29.6977 30.5597 30.0597C30.1977 30.4216 29.7068 30.625 29.1949 30.625H6.80515C6.29324 30.625 5.8023 30.4216 5.44033 30.0597C5.07835 29.6977 4.875 29.2068 4.875 28.6949V6.30515C4.875 5.79324 5.07835 5.3023 5.44033 4.94033C5.8023 4.57835 6.29324 4.375 6.80515 4.375H29.1949C29.7068 4.375 30.1977 4.57835 30.5597 4.94033C30.9216 5.3023 31.125 5.79324 31.125 6.30515V6.30515ZM12.5956 14.4118H8.73529V26.7647H12.5956V14.4118ZM12.943 10.1654C12.945 9.87344 12.8895 9.5839 12.7797 9.31335C12.6698 9.0428 12.5077 8.79654 12.3027 8.58863C12.0977 8.38072 11.8537 8.21524 11.5847 8.10162C11.3157 7.98801 11.0269 7.92849 10.7349 7.92647H10.6654C10.0716 7.92647 9.50214 8.16236 9.08225 8.58225C8.66236 9.00214 8.42647 9.57163 8.42647 10.1654C8.42647 10.7593 8.66236 11.3287 9.08225 11.7486C9.50214 12.1685 10.0716 12.4044 10.6654 12.4044V12.4044C10.9575 12.4116 11.248 12.3612 11.5206 12.256C11.7931 12.1509 12.0422 11.993 12.2537 11.7916C12.4652 11.5901 12.635 11.3489 12.7533 11.0818C12.8715 10.8147 12.936 10.527 12.943 10.2349V10.1654ZM27.2647 19.2603C27.2647 15.5467 24.9022 14.1029 22.5551 14.1029C21.7867 14.0645 21.0215 14.2281 20.3361 14.5777C19.6506 14.9272 19.0687 15.4503 18.6485 16.0949H18.5404V14.4118H14.9118V26.7647H18.7721V20.1945C18.7163 19.5216 18.9282 18.8538 19.3619 18.3363C19.7956 17.8188 20.4159 17.4933 21.0882 17.4305H21.2349C22.4625 17.4305 23.3735 18.2026 23.3735 20.1482V26.7647H27.2338L27.2647 19.2603Z" fill="currentColor"/>
</svg>
