<svg width="36" height="35" viewBox="0 0 36 35" fill="none" xmlns="http://www.w3.org/2000/svg">
<path fill-rule="evenodd" clip-rule="evenodd" d="M4.875 17.1062C4.875 9.7909 10.6063 4.375 18 4.375C25.3937 4.375 31.125 9.7909 31.125 17.1062C31.125 24.4216 25.3937 29.8375 18 29.8375C16.672 29.8375 15.3978 29.6622 14.2007 29.333C13.968 29.2689 13.7205 29.287 13.4997 29.3844L10.8946 30.5344C10.2131 30.8353 9.44389 30.3507 9.42105 29.606L9.34958 27.2713C9.34078 26.9836 9.21137 26.7148 8.99699 26.5229C6.44318 24.2391 4.875 20.9327 4.875 17.1062ZM13.974 14.7127L10.1185 20.8294C9.7485 21.4164 10.4701 22.0779 11.0228 21.6585L15.1642 18.5155C15.4444 18.3028 15.8315 18.3017 16.1128 18.5127L19.1793 20.8126C20.0995 21.5028 21.4128 21.2604 22.0261 20.2874L25.8816 14.1706C26.2515 13.5835 25.5299 12.922 24.9772 13.3415L20.8358 16.4845C20.5556 16.6972 20.1685 16.6983 19.8872 16.4872L16.8207 14.1874C15.9005 13.4973 14.5872 13.7396 13.974 14.7127Z" fill="currentColor"/>
</svg>
