<svg width="36" height="35" viewBox="0 0 36 35" fill="none" xmlns="http://www.w3.org/2000/svg">
<path fill-rule="evenodd" clip-rule="evenodd" d="M32.5827 17.5001C32.5827 25.5542 26.0535 32.0834 17.9993 32.0834C9.9452 32.0834 3.41602 25.5542 3.41602 17.5001C3.41602 9.44593 9.9452 2.91675 17.9993 2.91675C26.0535 2.91675 32.5827 9.44593 32.5827 17.5001ZM18.5219 13.6828C17.1035 14.2728 14.2686 15.4939 10.0172 17.3462C9.3269 17.6207 8.96526 17.8893 8.93234 18.1519C8.8767 18.5957 9.43248 18.7704 10.1893 19.0084C10.2923 19.0408 10.3989 19.0743 10.5083 19.1099C11.2529 19.3519 12.2545 19.6351 12.7752 19.6463C13.2475 19.6565 13.7747 19.4618 14.3567 19.0621C18.3289 16.3808 20.3793 15.0256 20.508 14.9963C20.5988 14.9757 20.7247 14.9498 20.81 15.0256C20.8952 15.1014 20.8869 15.2449 20.8778 15.2834C20.8228 15.5182 18.6411 17.5464 17.5121 18.596C17.1602 18.9232 16.9105 19.1553 16.8595 19.2083C16.7452 19.3271 16.6286 19.4394 16.5167 19.5474C15.8249 20.2142 15.3062 20.7143 16.5454 21.5309C17.1409 21.9234 17.6174 22.2479 18.0928 22.5716C18.612 22.9252 19.1299 23.2779 19.7999 23.7171C19.9706 23.829 20.1336 23.9452 20.2924 24.0584C20.8966 24.4891 21.4395 24.8761 22.1101 24.8144C22.4998 24.7786 22.9023 24.4121 23.1067 23.3193C23.5899 20.7366 24.5395 15.1406 24.759 12.8346C24.7782 12.6326 24.754 12.374 24.7346 12.2605C24.7152 12.147 24.6746 11.9853 24.527 11.8656C24.3523 11.7238 24.0826 11.6939 23.9619 11.696C23.4134 11.7057 22.5719 11.9983 18.5219 13.6828Z" fill="currentColor"/>
</svg>
