<svg width="36" height="35" viewBox="0 0 36 35" fill="none" xmlns="http://www.w3.org/2000/svg">
<path d="M18.055 4.79834C10.8507 4.79834 4.98762 10.4455 4.98508 17.3856C4.98339 19.605 5.58629 21.7711 6.72944 23.6789L4.875 30.2016L11.8042 28.4513C13.7316 29.4595 15.8747 29.9854 18.05 29.9839H18.055C25.2594 29.9839 31.1225 24.336 31.125 17.3958C31.1267 14.0341 29.7685 10.8697 27.3001 8.49112C24.8326 6.11169 21.5514 4.79919 18.055 4.79834ZM18.055 27.8577H18.0508C16.1015 27.8577 14.1895 27.353 12.5214 26.3995L12.1234 26.1726L8.01315 27.2108L9.11056 23.3495L8.8523 22.954C7.7675 21.2996 7.19002 19.364 7.19093 17.3856C7.19347 11.6166 12.0675 6.92459 18.0593 6.92459C20.9603 6.92544 23.6878 8.01523 25.7395 9.99245C27.7912 11.9697 28.92 14.5989 28.9183 17.395C28.9158 23.164 24.0426 27.8577 18.0542 27.8577H18.055ZM24.0138 20.0208C23.6869 19.8641 22.0815 19.1029 21.7817 18.997C21.4828 18.8929 21.2652 18.8387 21.0475 19.1537C20.8308 19.4687 20.2042 20.1775 20.0145 20.3866C19.8231 20.5966 19.6326 20.622 19.3057 20.4654C18.9789 20.3079 17.9263 19.9759 16.6799 18.9039C15.7086 18.0707 15.0532 17.041 14.8627 16.7252C14.6722 16.411 14.8424 16.2408 15.0058 16.0841C15.1523 15.9444 15.3327 15.7175 15.4952 15.5337C15.6578 15.35 15.712 15.2187 15.8221 15.0087C15.9305 14.7996 15.8763 14.615 15.7942 14.4583C15.712 14.3 15.06 12.7521 14.7865 12.1229C14.5223 11.5099 14.253 11.592 14.0523 11.5818C13.8618 11.5734 13.645 11.5708 13.4257 11.5708C13.2098 11.5708 12.855 11.6496 12.5552 11.9646C12.2563 12.2796 11.4121 13.04 11.4121 14.5879C11.4121 16.1366 12.5823 17.6321 12.7458 17.8421C12.9092 18.0512 15.049 21.2291 18.3252 22.5925C19.1042 22.9151 19.7122 23.109 20.1872 23.2546C20.9696 23.4943 21.6818 23.4596 22.244 23.3791C22.8706 23.2885 24.1764 22.6187 24.4473 21.8846C24.72 21.1504 24.72 20.5204 24.6387 20.3891C24.5591 20.2579 24.3406 20.1791 24.0138 20.0208Z" fill="currentColor"/>
</svg>
